<svg xmlns="http://www.w3.org/2000/svg" xmlns:xlink="http://www.w3.org/1999/xlink" width="600.298" height="481.073" viewBox="0 0 600.298 481.073"><defs><filter id="a" x="0" y="0" width="600.298" height="481.073" filterUnits="userSpaceOnUse"><feOffset dy="3" input="SourceAlpha"/><feGaussianBlur stdDeviation="3" result="b"/><feFlood flood-opacity="0.161"/><feComposite operator="in" in2="b"/><feComposite in="SourceGraphic"/></filter></defs><g transform="matrix(1, 0, 0, 1, 0, 0)" filter="url(#a)"><path d="M253.732,462.66l-55.5-16.01a10.861,10.861,0,0,1-7.46-13.477L314.96,7.873A10.943,10.943,0,0,1,328.515.456l55.5,16.01a10.861,10.861,0,0,1,7.46,13.477l-124.184,425.3A10.911,10.911,0,0,1,253.732,462.66ZM150.019,361.174,189.594,319.2a10.811,10.811,0,0,0-.728-15.558l-82.425-72.089,82.425-72.089a10.735,10.735,0,0,0,.728-15.558l-39.575-41.969a10.973,10.973,0,0,0-15.466-.452L3.455,223.6a10.74,10.74,0,0,0,0,15.829l131.1,122.2a10.892,10.892,0,0,0,15.466-.452Zm297.676.543,131.1-122.2a10.74,10.74,0,0,0,0-15.829L447.7,101.4a11.062,11.062,0,0,0-15.466.452L392.654,143.82a10.811,10.811,0,0,0,.728,15.558l82.425,72.18-82.425,72.089a10.735,10.735,0,0,0-.728,15.558l39.575,41.969A10.977,10.977,0,0,0,447.7,361.716Z" transform="translate(9.02 5.96)" fill="#eaeaea"/></g></svg>